<svg width="20.000000" height="20.000000" viewBox="0 0 20 20" fill="none" xmlns="http://www.w3.org/2000/svg" xmlns:xlink="http://www.w3.org/1999/xlink">
	<desc>
			Created with Pixso.
	</desc>
	<defs>
		<clipPath id="clip2_199">
			<rect id="Mail" width="20.000000" height="20.000000" fill="white" fill-opacity="0"/>
		</clipPath>
	</defs>
	<g clip-path="url(#clip2_199)">
		<path id="Icon" d="M10 9.882L2.00299 5.884C2.03259 5.37444 2.25592 4.89549 2.62717 4.54523C2.99844 4.19497 3.48959 3.99991 4 4L16 4C16.5104 3.99991 17.0016 4.19497 17.3728 4.54523C17.7441 4.89549 17.9674 5.37444 17.997 5.884L10 9.882ZM10 12.118L18 8.118L18 14C18 14.5304 17.7893 15.0391 17.4142 15.4142C17.0392 15.7893 16.5304 16 16 16L4 16C3.46957 16 2.96085 15.7893 2.58578 15.4142C2.21072 15.0391 2 14.5304 2 14L2 8.118L10 12.118Z" fill="#9CA3AF" fill-opacity="1.000000" fill-rule="evenodd"/>
	</g>
</svg>
